<?xml version="1.0" encoding="iso-8859-1"?>
<!-- Uploaded to: SVG Repo, www.svgrepo.com, Generator: SVG Repo Mixer Tools -->
<svg height="800px" width="800px" version="1.1" id="Layer_1" xmlns="http://www.w3.org/2000/svg" xmlns:xlink="http://www.w3.org/1999/xlink" 
	 viewBox="0 0 512.001 512.001" xml:space="preserve">
<path style="fill:#FFDB2D;" d="M468.371,345.598h-345.99c-8.526,0-15.736-6.312-16.862-14.764L78.903,131.224
	c-1.36-10.197,6.586-19.26,16.864-19.26h399.219c10.288,0,18.221,9.073,16.864,19.26l-26.615,199.609
	C484.107,339.285,476.897,345.598,468.371,345.598z"/>
<polygon style="fill:#FF9900;" points="219.771,345.598 253.811,345.598 246.778,111.964 212.738,111.964 "/>
<path style="fill:#A7A9AC;" d="M470.67,422.719H132.176c-8.526,0-15.736-6.312-16.864-14.764L67.53,49.586H17.012
	C7.617,49.586,0,41.969,0,32.574s7.617-17.012,17.012-17.012h65.413c8.526,0,15.736,6.312,16.864,14.764l47.783,358.369H470.67
	c9.395,0,17.012,7.617,17.012,17.012C487.682,415.103,480.065,422.719,470.67,422.719z"/>
<path style="fill:#808285;" d="M469.973,388.695H295.127v34.024H470.42c10.033,0,18.037-8.685,16.906-18.947
	C486.368,395.093,478.706,388.695,469.973,388.695z"/>
<path style="fill:#FFDB2D;" d="M223.993,496.439c-27.83,0-50.469-22.64-50.469-50.469c0-27.83,22.64-50.469,50.469-50.469
	s50.469,22.64,50.469,50.469C274.463,473.799,251.823,496.439,223.993,496.439z"/>
<path style="fill:#FF9900;" d="M494.736,111.964H295.127v233.634h172.994c8.526,0,15.736-6.312,16.862-14.764l26.615-199.609
	C512.957,121.037,505.024,111.964,494.736,111.964z"/>
<polygon style="fill:#FF4F19;" points="378.012,111.964 343.972,111.964 336.94,345.598 370.979,345.598 "/>
<path style="fill:#FF9900;" d="M389.578,496.439c-27.83,0-50.469-22.64-50.469-50.469c0-27.83,22.64-50.469,50.469-50.469
	c27.83,0,50.469,22.64,50.469,50.469C440.048,473.799,417.408,496.439,389.578,496.439z"/>
</svg>